# xmcd
#
# Track frame offsets:
#  150
#  13175
#  22707
#  33445
#  44797
#  57517
#  87380
#  98920
#  110432
#  121967
#  135407
#  151235
#
# Disc length: 2158 seconds
#
# Revision: 0
# Processed by: cddbd v1.5.1PL0 Copyright (c) Steve Scherf et al.
# Submitted via: AltoMP3_Maker 3.0
#
DISCID=97086c0c
DTITLE=Charley Pride - No 1 Country Hits
DYEAR=1900
DGENRE=
TTITLE0=Kaw-Liga
TTITLE1=Kiss An Angel Good Morning
TTITLE2=Oklahomer Morning
TTITLE3=Its Gonna Take A Little Bit Longer
TTITLE4=Crystal Chandeliers
TTITLE5=Great Hits Medley
TTITLE6=Shutters and Boards
TTITLE7=The Happiness Of having You
TTITLE8=My Eyes Can Only See As Far As You
TTITLE9=Im So Afraid Of Loosing You
TTITLE10=Let Me Live In The Light Of His Love
TTITLE11=Mississippi Cotton Picking Delta Town
EXTD=
EXTT0=
EXTT1=
EXTT2=
EXTT3=
EXTT4=
EXTT5=
EXTT6=
EXTT7=
EXTT8=
EXTT9=
EXTT10=
EXTT11=
PLAYORDER=
